<?xml version="1.0" encoding="UTF-8" standalone="no"?>
<!DOCTYPE svg PUBLIC "-//W3C//DTD SVG 1.1//EN"
 "http://www.w3.org/Graphics/SVG/1.1/DTD/svg11.dtd">
<!-- Generated by graphviz version 2.43.0 (0)
 -->
<!-- Title: test Pages: 1 -->
<svg width="2323pt" height="693pt"
 viewBox="0.00 0.00 2323.04 692.62" xmlns="http://www.w3.org/2000/svg" xmlns:xlink="http://www.w3.org/1999/xlink">
<g id="graph0" class="graph" transform="scale(1 1) rotate(0) translate(4 688.62)">
<title>test</title>
<polygon fill="white" stroke="transparent" points="-4,4 -4,-688.62 2319.04,-688.62 2319.04,4 -4,4"/>
<!-- PBS ROOT -->
<g id="node1" class="node">
<title>PBS ROOT</title>
<g id="a_node1"><a xlink:href="node0.html" xlink:title="PBS ROOT">
<polygon fill="none" stroke="red" stroke-dasharray="1,5" points="1193.37,-572.85 1252.73,-561.3 1312.1,-572.85 1312.05,-591.53 1193.42,-591.53 1193.37,-572.85"/>
<text text-anchor="middle" x="1252.73" y="-575.51" font-family="arial" font-size="10.00">PBS ROOT</text>
</a>
</g>
</g>
<!-- node2 -->
<g id="node3" class="node">
<title>node2</title>
<g id="a_node3"><a xlink:href="node1.html" xlink:title="./proj">
<polygon fill="lightyellow" stroke="red" points="1286.16,-495.96 1252.73,-507.51 1219.31,-495.96 1219.34,-477.28 1286.13,-477.28 1286.16,-495.96"/>
<text text-anchor="middle" x="1252.73" y="-488.3" font-family="arial" font-size="10.00">./proj</text>
</a>
</g>
</g>
<!-- PBS ROOT&#45;&gt;node2 -->
<g id="edge48" class="edge">
<title>PBS ROOT&#45;&gt;node2</title>
<g id="a_edge48"><a xlink:href="edge" xlink:title="edge">
<path fill="none" stroke="red" d="M1252.73,-561.38C1252.73,-549.21 1252.73,-532.04 1252.73,-517.8"/>
<polygon fill="red" stroke="red" points="1256.23,-517.62 1252.73,-507.62 1249.23,-517.62 1256.23,-517.62"/>
</a>
</g>
</g>
<!-- node1 -->
<g id="node2" class="node">
<title>node1</title>
<g id="a_node2"><a xlink:href="config0.html" xlink:title="#0\n/home/nadim/nadim/devel/repositories/perl_modules/P5&#45;PerlBuildSystem/Pbsfiles/sugar/proj">
<polygon fill="none" stroke="#ee9572" points="745.7,-213.31 745.7,-232.3 527.22,-245.73 218.25,-245.73 -0.23,-232.3 -0.23,-213.31 218.25,-199.88 527.22,-199.88 745.7,-213.31"/>
<text text-anchor="middle" x="372.73" y="-225.81" font-family="Times,serif" font-size="10.00">#0</text>
<text text-anchor="middle" x="372.73" y="-214.81" font-family="Times,serif" font-size="10.00">/home/nadim/nadim/devel/repositories/perl_modules/P5&#45;PerlBuildSystem/Pbsfiles/sugar/proj</text>
</a>
</g>
</g>
<!-- node2&#45;&gt;node1 -->
<g id="edge41" class="edge">
<title>node2&#45;&gt;node1</title>
<g id="a_edge41"><a xlink:href="config 40d30645de587c598109d450278bf2a1PBS" xlink:title="config edge">
<path fill="none" stroke="orange" stroke-dasharray="1,5" d="M1219.39,-482.98C1127.07,-463.71 860.82,-405.52 646.73,-332.98 570.38,-307.11 484.31,-271.77 429.36,-248.39"/>
<polygon fill="orange" stroke="orange" points="430.01,-246.2 423.14,-245.74 428.23,-250.38 430.01,-246.2"/>
</a>
</g>
</g>
<!-- node4 -->
<g id="node5" class="node">
<title>node4</title>
<g id="a_node5"><a xlink:href="node2.html" xlink:title="./compiler_2/compiler_2">
<polygon fill="lightyellow" stroke="red" points="1147.97,-398.42 1252.73,-386.87 1357.5,-398.42 1357.4,-417.11 1148.06,-417.11 1147.97,-398.42"/>
<text text-anchor="middle" x="1252.73" y="-401.09" font-family="arial" font-size="10.00">./compiler_2/compiler_2</text>
</a>
</g>
</g>
<!-- node2&#45;&gt;node4 -->
<g id="edge38" class="edge">
<title>node2&#45;&gt;node4</title>
<g id="a_edge38"><a xlink:href="edge" xlink:title="edge">
<path fill="none" stroke="red" d="M1252.73,-477.23C1252.73,-464.14 1252.73,-443.35 1252.73,-427.36"/>
<polygon fill="red" stroke="red" points="1256.23,-427.21 1252.73,-417.21 1249.23,-427.21 1256.23,-427.21"/>
</a>
</g>
</g>
<!-- node6 -->
<g id="node7" class="node">
<title>node6</title>
<g id="a_node7"><a xlink:href="node3.html" xlink:title="./runtime">
<polygon fill="lightyellow" stroke="red" points="2160.59,-311.21 2208.73,-299.66 2256.88,-311.21 2256.83,-329.89 2160.63,-329.89 2160.59,-311.21"/>
<text text-anchor="middle" x="2208.73" y="-313.87" font-family="arial" font-size="10.00">./runtime</text>
</a>
</g>
</g>
<!-- node2&#45;&gt;node6 -->
<g id="edge39" class="edge">
<title>node2&#45;&gt;node6</title>
<g id="a_edge39"><a xlink:href="edge" xlink:title="edge">
<path fill="none" stroke="red" d="M1286.31,-489.63C1422.74,-488.55 1935.36,-480.48 2083.73,-420.19 2128.41,-402.04 2169.35,-362.02 2191.5,-337.61"/>
<polygon fill="red" stroke="red" points="2194.25,-339.79 2198.27,-329.98 2189.01,-335.14 2194.25,-339.79"/>
</a>
</g>
</g>
<!-- node12 -->
<g id="node13" class="node">
<title>node12</title>
<g id="a_node13"><a xlink:href="node9.html" xlink:title="./tests">
<polygon fill="lightyellow" stroke="red" points="1042.15,-408.75 1003.73,-420.3 965.32,-408.75 965.35,-390.06 1042.11,-390.06 1042.15,-408.75"/>
<text text-anchor="middle" x="1003.73" y="-401.09" font-family="arial" font-size="10.00">./tests</text>
</a>
</g>
</g>
<!-- node2&#45;&gt;node12 -->
<g id="edge40" class="edge">
<title>node2&#45;&gt;node12</title>
<g id="a_edge40"><a xlink:href="edge" xlink:title="edge">
<path fill="none" stroke="red" d="M1219.41,-478.4C1172.03,-462.18 1085.63,-432.61 1037.83,-416.25"/>
<polygon fill="red" stroke="red" points="1038.84,-412.9 1028.24,-412.97 1036.57,-419.52 1038.84,-412.9"/>
</a>
</g>
</g>
<!-- node19 -->
<g id="node20" class="node">
<title>node19</title>
<g id="a_node20"><a xlink:href="node15.html" xlink:title="./compiler_1/compiler_1">
<polygon fill="lightyellow" stroke="red" points="1864.97,-398.42 1969.73,-386.87 2074.5,-398.42 2074.4,-417.11 1865.06,-417.11 1864.97,-398.42"/>
<text text-anchor="middle" x="1969.73" y="-401.09" font-family="arial" font-size="10.00">./compiler_1/compiler_1</text>
</a>
</g>
</g>
<!-- node2&#45;&gt;node19 -->
<g id="edge37" class="edge">
<title>node2&#45;&gt;node19</title>
<g id="a_edge37"><a xlink:href="edge" xlink:title="edge">
<path fill="none" stroke="red" d="M1286.35,-485.8C1386.74,-473.87 1687.68,-438.11 1854.76,-418.25"/>
<polygon fill="red" stroke="red" points="1855.32,-421.71 1864.83,-417.05 1854.49,-414.76 1855.32,-421.71"/>
</a>
</g>
</g>
<!-- node3 -->
<g id="node4" class="node">
<title>node3</title>
<g id="a_node4"><a xlink:href="config1.html" xlink:title="#1 (== 0)\ncompiler/compiler">
<polygon fill="none" stroke="#ee9572" points="1221.55,-113.39 1221.55,-132.38 1173.04,-145.81 1104.43,-145.81 1055.91,-132.38 1055.91,-113.39 1104.43,-99.96 1173.04,-99.96 1221.55,-113.39"/>
<text text-anchor="middle" x="1138.73" y="-125.88" font-family="Times,serif" font-size="10.00">#1 (== 0)</text>
<text text-anchor="middle" x="1138.73" y="-114.88" font-family="Times,serif" font-size="10.00">compiler/compiler</text>
</a>
</g>
</g>
<!-- node4&#45;&gt;node3 -->
<g id="edge24" class="edge">
<title>node4&#45;&gt;node3</title>
<g id="a_edge24"><a xlink:href="config 40d30645de587c598109d450278bf2a1*/compiler_2 @ compiler/compiler" xlink:title="config edge">
<path fill="none" stroke="orange" stroke-dasharray="1,5" d="M1225.21,-389.66C1203.78,-378.02 1175.31,-358.79 1160.73,-332.98 1128.28,-275.5 1130.7,-194.9 1134.92,-152.52"/>
<polygon fill="orange" stroke="orange" points="1137.18,-152.76 1135.6,-146.05 1132.65,-152.27 1137.18,-152.76"/>
</a>
</g>
</g>
<!-- node4&#45;&gt;node6 -->
<g id="edge23" class="edge">
<title>node4&#45;&gt;node6</title>
<g id="a_edge23"><a xlink:href="edge" xlink:title="edge">
<path fill="none" stroke="red" d="M1331.78,-395.54C1518.92,-378.86 1985.65,-337.26 2150.19,-322.59"/>
<polygon fill="red" stroke="red" points="2150.94,-326.04 2160.59,-321.66 2150.31,-319.07 2150.94,-326.04"/>
</a>
</g>
</g>
<!-- node7 -->
<g id="node8" class="node">
<title>node7</title>
<g id="a_node8"><a xlink:href="node4.html" xlink:title="./compiler_2/compiler_2.jar">
<polygon fill="lightyellow" stroke="red" points="1403.97,-321.54 1286.73,-333.09 1169.49,-321.54 1169.6,-302.85 1403.86,-302.85 1403.97,-321.54"/>
<text text-anchor="middle" x="1286.73" y="-313.87" font-family="arial" font-size="10.00">./compiler_2/compiler_2.jar</text>
</a>
</g>
</g>
<!-- node4&#45;&gt;node7 -->
<g id="edge21" class="edge">
<title>node4&#45;&gt;node7</title>
<g id="a_edge21"><a xlink:href="edge" xlink:title="edge">
<path fill="none" stroke="red" d="M1258.81,-387.35C1263.81,-374.83 1270.99,-356.83 1276.82,-342.22"/>
<polygon fill="red" stroke="red" points="1280.14,-343.35 1280.59,-332.76 1273.64,-340.75 1280.14,-343.35"/>
</a>
</g>
</g>
<!-- node9 -->
<g id="node10" class="node">
<title>node9</title>
<g id="a_node10"><a xlink:href="node6.html" xlink:title="./compiler_2/compiler_2.test">
<polygon fill="lightyellow" stroke="red" points="1092.96,-321.54 970.73,-333.09 848.5,-321.54 848.62,-302.85 1092.85,-302.85 1092.96,-321.54"/>
<text text-anchor="middle" x="970.73" y="-313.87" font-family="arial" font-size="10.00">./compiler_2/compiler_2.test</text>
</a>
</g>
</g>
<!-- node4&#45;&gt;node9 -->
<g id="edge22" class="edge">
<title>node4&#45;&gt;node9</title>
<g id="a_edge22"><a xlink:href="edge" xlink:title="edge">
<path fill="none" stroke="red" d="M1214.41,-391C1164.12,-375.81 1075.77,-349.11 1020.4,-332.38"/>
<polygon fill="red" stroke="red" points="1021.38,-329.02 1010.8,-329.48 1019.36,-335.72 1021.38,-329.02"/>
</a>
</g>
</g>
<!-- node5 -->
<g id="node6" class="node">
<title>node5</title>
<g id="a_node6"><a xlink:href="config2.html" xlink:title="#2 (== 0)\nruntime/runtime">
<polygon fill="none" stroke="#ee9572" points="2314.84,-213.31 2314.84,-232.3 2269.67,-245.73 2205.8,-245.73 2160.63,-232.3 2160.63,-213.31 2205.8,-199.88 2269.67,-199.88 2314.84,-213.31"/>
<text text-anchor="middle" x="2237.73" y="-225.81" font-family="Times,serif" font-size="10.00">#2 (== 0)</text>
<text text-anchor="middle" x="2237.73" y="-214.81" font-family="Times,serif" font-size="10.00">runtime/runtime</text>
</a>
</g>
</g>
<!-- node6&#45;&gt;node5 -->
<g id="edge43" class="edge">
<title>node6&#45;&gt;node5</title>
<g id="a_edge43"><a xlink:href="config 40d30645de587c598109d450278bf2a1*/runtime @ runtime/runtime" xlink:title="config edge">
<path fill="none" stroke="orange" stroke-dasharray="1,5" d="M2213.39,-300.66C2217.48,-287.74 2223.55,-268.58 2228.61,-252.62"/>
<polygon fill="orange" stroke="orange" points="2230.91,-252.89 2230.7,-246 2226.57,-251.51 2230.91,-252.89"/>
</a>
</g>
</g>
<!-- node6&#45;&gt;node6 -->
<g id="edge42" class="edge">
<title>node6&#45;&gt;node6</title>
<path fill="none" stroke="blue" d="M2232.79,-329.94C2253.27,-335.93 2274.81,-331.41 2274.81,-316.37 2274.81,-301.82 2254.63,-297.12 2234.76,-302.26"/>
<polygon fill="blue" stroke="blue" points="2233.87,-300.16 2228.35,-304.28 2235.23,-304.5 2233.87,-300.16"/>
</g>
<!-- node7&#45;&gt;node3 -->
<g id="edge27" class="edge">
<title>node7&#45;&gt;node3</title>
<g id="a_edge27"><a xlink:href="config 40d30645de587c598109d450278bf2a1*/compiler_2 @ compiler/compiler" xlink:title="config edge">
<path fill="none" stroke="orange" stroke-dasharray="1,5" d="M1352.77,-302.73C1384.81,-292.91 1420.46,-275.7 1439.73,-245.77 1450.78,-228.6 1452.28,-215.95 1439.73,-199.84 1413.6,-166.29 1305.3,-145.24 1226.07,-134.03"/>
<polygon fill="orange" stroke="orange" points="1226.21,-131.75 1219.46,-133.11 1225.58,-136.26 1226.21,-131.75"/>
</a>
</g>
</g>
<!-- node7&#45;&gt;node7 -->
<g id="edge25" class="edge">
<title>node7&#45;&gt;node7</title>
<path fill="none" stroke="gray" d="M1329.63,-328.95C1373.27,-336.36 1421.85,-332.16 1421.85,-316.37 1421.85,-302.16 1382.5,-297.34 1342.81,-301.92"/>
<polygon fill="gray" stroke="gray" points="1342.08,-299.72 1335.92,-302.81 1342.66,-304.23 1342.08,-299.72"/>
</g>
<!-- node8 -->
<g id="node9" class="node">
<title>node8</title>
<g id="a_node9"><a xlink:href="node5.html" xlink:title="./compiler_2/compiler_2.java">
<polygon fill="lightyellow" stroke="red" points="1413.21,-227.97 1289.73,-239.52 1166.26,-227.97 1166.37,-209.28 1413.1,-209.28 1413.21,-227.97"/>
<text text-anchor="middle" x="1289.73" y="-220.31" font-family="arial" font-size="10.00">./compiler_2/compiler_2.java</text>
</a>
</g>
</g>
<!-- node7&#45;&gt;node8 -->
<g id="edge26" class="edge">
<title>node7&#45;&gt;node8</title>
<g id="a_edge26"><a xlink:href="edge" xlink:title="edge">
<path fill="none" stroke="red" d="M1287.15,-302.64C1287.6,-288.97 1288.32,-266.87 1288.89,-249.55"/>
<polygon fill="red" stroke="red" points="1292.39,-249.6 1289.22,-239.49 1285.39,-249.37 1292.39,-249.6"/>
</a>
</g>
</g>
<!-- node8&#45;&gt;node3 -->
<g id="edge29" class="edge">
<title>node8&#45;&gt;node3</title>
<g id="a_edge29"><a xlink:href="config 40d30645de587c598109d450278bf2a1*/compiler_2 @ compiler/compiler" xlink:title="config edge">
<path fill="none" stroke="orange" stroke-dasharray="1,5" d="M1270.3,-209.2C1247.23,-194.24 1208.15,-168.9 1178.56,-149.71"/>
<polygon fill="orange" stroke="orange" points="1179.46,-147.59 1172.77,-145.96 1176.99,-151.4 1179.46,-147.59"/>
</a>
</g>
</g>
<!-- node8&#45;&gt;node8 -->
<g id="edge28" class="edge">
<title>node8&#45;&gt;node8</title>
<path fill="none" stroke="gray" d="M1331.3,-235.67C1377.73,-244.39 1430.97,-240.1 1430.97,-222.81 1430.97,-206.75 1385.09,-201.9 1341.36,-208.26"/>
<polygon fill="gray" stroke="gray" points="1341,-206.02 1334.93,-209.28 1341.71,-210.51 1341,-206.02"/>
</g>
<!-- node9&#45;&gt;node1 -->
<g id="edge34" class="edge">
<title>node9&#45;&gt;node1</title>
<g id="a_edge34"><a xlink:href="config 40d30645de587c598109d450278bf2a1PBS" xlink:title="config edge">
<path fill="none" stroke="orange" stroke-dasharray="1,5" d="M888.84,-302.83C794.81,-288.44 638.64,-264.52 522.67,-246.76"/>
<polygon fill="orange" stroke="orange" points="522.91,-244.5 516.14,-245.76 522.22,-249 522.91,-244.5"/>
</a>
</g>
</g>
<!-- node9&#45;&gt;node7 -->
<g id="edge31" class="edge">
<title>node9&#45;&gt;node7</title>
<g id="a_edge31"><a xlink:href="edge" xlink:title="edge">
<path fill="none" stroke="red" d="M1092.94,-316.37C1115.04,-316.37 1137.14,-316.37 1159.24,-316.37"/>
<polygon fill="red" stroke="red" points="1159.4,-319.87 1169.4,-316.37 1159.4,-312.87 1159.4,-319.87"/>
</a>
</g>
</g>
<!-- node9&#45;&gt;node9 -->
<g id="edge32" class="edge">
<title>node9&#45;&gt;node9</title>
<path fill="none" stroke="gray" d="M1015.29,-328.95C1060.63,-336.36 1111.1,-332.16 1111.1,-316.37 1111.1,-302.1 1069.88,-297.3 1028.47,-301.98"/>
<polygon fill="gray" stroke="gray" points="1028,-299.74 1021.83,-302.81 1028.56,-304.26 1028,-299.74"/>
</g>
<!-- node10 -->
<g id="node11" class="node">
<title>node10</title>
<g id="a_node11"><a xlink:href="node7.html" xlink:title="./compiler_2/a.t">
<polygon fill="lightyellow" stroke="red" points="910.07,-227.97 836.73,-239.52 763.4,-227.97 763.46,-209.28 910,-209.28 910.07,-227.97"/>
<text text-anchor="middle" x="836.73" y="-220.31" font-family="arial" font-size="10.00">./compiler_2/a.t</text>
</a>
</g>
</g>
<!-- node9&#45;&gt;node10 -->
<g id="edge30" class="edge">
<title>node9&#45;&gt;node10</title>
<g id="a_edge30"><a xlink:href="edge" xlink:title="edge">
<path fill="none" stroke="red" d="M952.38,-302.83C929.59,-287.25 890.49,-260.54 864.13,-242.53"/>
<polygon fill="red" stroke="red" points="865.96,-239.54 855.73,-236.78 862.01,-245.32 865.96,-239.54"/>
</a>
</g>
</g>
<!-- node11 -->
<g id="node12" class="node">
<title>node11</title>
<g id="a_node12"><a xlink:href="node8.html" xlink:title="./compiler_2/x.t">
<polygon fill="lightyellow" stroke="red" points="1093.07,-227.97 1019.73,-239.52 946.4,-227.97 946.46,-209.28 1093,-209.28 1093.07,-227.97"/>
<text text-anchor="middle" x="1019.73" y="-220.31" font-family="arial" font-size="10.00">./compiler_2/x.t</text>
</a>
</g>
</g>
<!-- node9&#45;&gt;node11 -->
<g id="edge33" class="edge">
<title>node9&#45;&gt;node11</title>
<g id="a_edge33"><a xlink:href="edge" xlink:title="edge">
<path fill="none" stroke="red" d="M977.55,-302.64C985.14,-288.46 997.57,-265.22 1006.98,-247.64"/>
<polygon fill="red" stroke="red" points="1010.21,-249.02 1011.84,-238.55 1004.04,-245.71 1010.21,-249.02"/>
</a>
</g>
</g>
<!-- node10&#45;&gt;node3 -->
<g id="edge20" class="edge">
<title>node10&#45;&gt;node3</title>
<g id="a_edge20"><a xlink:href="config 40d30645de587c598109d450278bf2a1*/compiler_2 @ compiler/compiler" xlink:title="config edge">
<path fill="none" stroke="orange" stroke-dasharray="1,5" d="M875.6,-209.2C927.4,-192.41 1019.53,-162.53 1079.87,-142.97"/>
<polygon fill="orange" stroke="orange" points="1080.86,-145.04 1086.34,-140.87 1079.46,-140.71 1080.86,-145.04"/>
</a>
</g>
</g>
<!-- node10&#45;&gt;node10 -->
<g id="edge19" class="edge">
<title>node10&#45;&gt;node10</title>
<path fill="none" stroke="gray" d="M862.94,-235.47C893.15,-244.46 928.15,-240.23 928.15,-222.81 928.15,-207.25 900.28,-202.22 872.81,-207.7"/>
<polygon fill="gray" stroke="gray" points="872.05,-205.54 866.23,-209.22 873.07,-209.97 872.05,-205.54"/>
</g>
<!-- node11&#45;&gt;node3 -->
<g id="edge36" class="edge">
<title>node11&#45;&gt;node3</title>
<g id="a_edge36"><a xlink:href="config 40d30645de587c598109d450278bf2a1*/compiler_2 @ compiler/compiler" xlink:title="config edge">
<path fill="none" stroke="orange" stroke-dasharray="1,5" d="M1035.29,-209C1053.33,-194.16 1083.55,-169.29 1106.68,-150.26"/>
<polygon fill="orange" stroke="orange" points="1108.22,-151.94 1111.8,-146.05 1105.33,-148.42 1108.22,-151.94"/>
</a>
</g>
</g>
<!-- node11&#45;&gt;node11 -->
<g id="edge35" class="edge">
<title>node11&#45;&gt;node11</title>
<path fill="none" stroke="gray" d="M1045.94,-235.47C1076.15,-244.46 1111.15,-240.23 1111.15,-222.81 1111.15,-207.25 1083.28,-202.22 1055.81,-207.7"/>
<polygon fill="gray" stroke="gray" points="1055.05,-205.54 1049.23,-209.22 1056.07,-209.97 1055.05,-205.54"/>
</g>
<!-- node12&#45;&gt;node1 -->
<g id="edge47" class="edge">
<title>node12&#45;&gt;node1</title>
<g id="a_edge47"><a xlink:href="config 40d30645de587c598109d450278bf2a1PBS" xlink:title="config edge">
<path fill="none" stroke="orange" stroke-dasharray="1,5" d="M965.21,-391.67C865.12,-363.31 595.04,-286.79 456.78,-247.62"/>
<polygon fill="orange" stroke="orange" points="457.17,-245.36 450.29,-245.78 455.93,-249.74 457.17,-245.36"/>
</a>
</g>
</g>
<!-- node12&#45;&gt;node9 -->
<g id="edge45" class="edge">
<title>node12&#45;&gt;node9</title>
<g id="a_edge45"><a xlink:href="edge" xlink:title="edge">
<path fill="none" stroke="red" d="M998.86,-390.01C994.01,-377.48 986.43,-357.89 980.35,-342.22"/>
<polygon fill="red" stroke="red" points="983.5,-340.65 976.63,-332.59 976.98,-343.18 983.5,-340.65"/>
</a>
</g>
</g>
<!-- node12&#45;&gt;node12 -->
<g id="edge46" class="edge">
<title>node12&#45;&gt;node12</title>
<path fill="none" stroke="gray" d="M1020.21,-415.55C1038.8,-423.78 1060.19,-419.79 1060.19,-403.59 1060.19,-390.43 1046.1,-385.33 1030.85,-388.27"/>
<polygon fill="gray" stroke="gray" points="1029.98,-386.15 1024.29,-390.02 1031.15,-390.54 1029.98,-386.15"/>
</g>
<!-- node13 -->
<g id="node14" class="node">
<title>node13</title>
<g id="a_node14"><a xlink:href="node10.html" xlink:title="./compiler_1/compiler_1.test">
<polygon fill="lightyellow" stroke="red" points="1775.96,-321.54 1653.73,-333.09 1531.5,-321.54 1531.62,-302.85 1775.85,-302.85 1775.96,-321.54"/>
<text text-anchor="middle" x="1653.73" y="-313.87" font-family="arial" font-size="10.00">./compiler_1/compiler_1.test</text>
</a>
</g>
</g>
<!-- node12&#45;&gt;node13 -->
<g id="edge44" class="edge">
<title>node12&#45;&gt;node13</title>
<g id="a_edge44"><a xlink:href="edge" xlink:title="edge">
<path fill="none" stroke="red" d="M1042.45,-397.51C1146.37,-383.89 1433.07,-346.3 1573.76,-327.86"/>
<polygon fill="red" stroke="red" points="1574.58,-331.28 1584.04,-326.51 1573.67,-324.34 1574.58,-331.28"/>
</a>
</g>
</g>
<!-- node13&#45;&gt;node1 -->
<g id="edge16" class="edge">
<title>node13&#45;&gt;node1</title>
<g id="a_edge16"><a xlink:href="config 40d30645de587c598109d450278bf2a1PBS" xlink:title="config edge">
<path fill="none" stroke="orange" stroke-dasharray="1,5" d="M1531.49,-306.63C1321.63,-291.63 889.11,-260.72 615.94,-241.19"/>
<polygon fill="orange" stroke="orange" points="615.76,-238.9 609.11,-240.7 615.43,-243.43 615.76,-238.9"/>
</a>
</g>
</g>
<!-- node13&#45;&gt;node13 -->
<g id="edge14" class="edge">
<title>node13&#45;&gt;node13</title>
<path fill="none" stroke="gray" d="M1698.29,-328.95C1743.63,-336.36 1794.1,-332.16 1794.1,-316.37 1794.1,-302.1 1752.88,-297.3 1711.47,-301.98"/>
<polygon fill="gray" stroke="gray" points="1711,-299.74 1704.83,-302.81 1711.56,-304.26 1711,-299.74"/>
</g>
<!-- node15 -->
<g id="node16" class="node">
<title>node15</title>
<g id="a_node16"><a xlink:href="node11.html" xlink:title="./compiler_1/a.t">
<polygon fill="lightyellow" stroke="red" points="1633.07,-227.97 1559.73,-239.52 1486.4,-227.97 1486.46,-209.28 1633,-209.28 1633.07,-227.97"/>
<text text-anchor="middle" x="1559.73" y="-220.31" font-family="arial" font-size="10.00">./compiler_1/a.t</text>
</a>
</g>
</g>
<!-- node13&#45;&gt;node15 -->
<g id="edge12" class="edge">
<title>node13&#45;&gt;node15</title>
<g id="a_edge12"><a xlink:href="edge" xlink:title="edge">
<path fill="none" stroke="red" d="M1640.66,-302.64C1625.3,-287.68 1599.59,-262.63 1581.27,-244.78"/>
<polygon fill="red" stroke="red" points="1583.53,-242.1 1573.92,-237.63 1578.64,-247.11 1583.53,-242.1"/>
</a>
</g>
</g>
<!-- node16 -->
<g id="node17" class="node">
<title>node16</title>
<g id="a_node17"><a xlink:href="node12.html" xlink:title="./compiler_1/compiler_1.jar">
<polygon fill="lightyellow" stroke="red" points="2086.97,-227.97 1969.73,-239.52 1852.49,-227.97 1852.6,-209.28 2086.86,-209.28 2086.97,-227.97"/>
<text text-anchor="middle" x="1969.73" y="-220.31" font-family="arial" font-size="10.00">./compiler_1/compiler_1.jar</text>
</a>
</g>
</g>
<!-- node13&#45;&gt;node16 -->
<g id="edge13" class="edge">
<title>node13&#45;&gt;node16</title>
<g id="a_edge13"><a xlink:href="edge" xlink:title="edge">
<path fill="none" stroke="red" d="M1697.01,-302.83C1754.97,-286.04 1857.63,-256.29 1919.11,-238.47"/>
<polygon fill="red" stroke="red" points="1920.35,-241.76 1928.98,-235.61 1918.4,-235.04 1920.35,-241.76"/>
</a>
</g>
</g>
<!-- node18 -->
<g id="node19" class="node">
<title>node18</title>
<g id="a_node19"><a xlink:href="node14.html" xlink:title="./compiler_1/x.t">
<polygon fill="lightyellow" stroke="red" points="1816.07,-227.97 1742.73,-239.52 1669.4,-227.97 1669.46,-209.28 1816,-209.28 1816.07,-227.97"/>
<text text-anchor="middle" x="1742.73" y="-220.31" font-family="arial" font-size="10.00">./compiler_1/x.t</text>
</a>
</g>
</g>
<!-- node13&#45;&gt;node18 -->
<g id="edge15" class="edge">
<title>node13&#45;&gt;node18</title>
<g id="a_edge15"><a xlink:href="edge" xlink:title="edge">
<path fill="none" stroke="red" d="M1666.11,-302.64C1680.52,-287.81 1704.57,-263.07 1721.88,-245.26"/>
<polygon fill="red" stroke="red" points="1724.84,-247.24 1729.3,-237.63 1719.82,-242.36 1724.84,-247.24"/>
</a>
</g>
</g>
<!-- node14 -->
<g id="node15" class="node">
<title>node14</title>
<g id="a_node15"><a xlink:href="config3.html" xlink:title="#3 (== 0)\ncompiler/compiler">
<polygon fill="none" stroke="#ee9572" points="1895.55,-13.47 1895.55,-32.46 1847.04,-45.88 1778.43,-45.88 1729.91,-32.46 1729.91,-13.47 1778.43,-0.04 1847.04,-0.04 1895.55,-13.47"/>
<text text-anchor="middle" x="1812.73" y="-25.96" font-family="Times,serif" font-size="10.00">#3 (== 0)</text>
<text text-anchor="middle" x="1812.73" y="-14.96" font-family="Times,serif" font-size="10.00">compiler/compiler</text>
</a>
</g>
</g>
<!-- node15&#45;&gt;node14 -->
<g id="edge2" class="edge">
<title>node15&#45;&gt;node14</title>
<g id="a_edge2"><a xlink:href="config 40d30645de587c598109d450278bf2a1*/compiler_1 @ compiler/compiler" xlink:title="config edge">
<path fill="none" stroke="orange" stroke-dasharray="1,5" d="M1575.94,-209.13C1616.73,-177.24 1724.24,-93.16 1779.26,-50.14"/>
<polygon fill="orange" stroke="orange" points="1780.7,-51.9 1784.42,-46.1 1777.9,-48.31 1780.7,-51.9"/>
</a>
</g>
</g>
<!-- node15&#45;&gt;node15 -->
<g id="edge1" class="edge">
<title>node15&#45;&gt;node15</title>
<path fill="none" stroke="gray" d="M1585.94,-235.47C1616.15,-244.46 1651.15,-240.23 1651.15,-222.81 1651.15,-207.25 1623.28,-202.22 1595.81,-207.7"/>
<polygon fill="gray" stroke="gray" points="1595.05,-205.54 1589.23,-209.22 1596.07,-209.97 1595.05,-205.54"/>
</g>
<!-- node16&#45;&gt;node14 -->
<g id="edge9" class="edge">
<title>node16&#45;&gt;node14</title>
<g id="a_edge9"><a xlink:href="config 40d30645de587c598109d450278bf2a1*/compiler_1 @ compiler/compiler" xlink:title="config edge">
<path fill="none" stroke="orange" stroke-dasharray="1,5" d="M1925.92,-209.19C1894.6,-197.82 1854.17,-177.87 1831.73,-145.84 1812.56,-118.47 1809.7,-79.18 1810.39,-52.67"/>
<polygon fill="orange" stroke="orange" points="1812.68,-52.47 1810.65,-45.89 1808.13,-52.3 1812.68,-52.47"/>
</a>
</g>
</g>
<!-- node16&#45;&gt;node16 -->
<g id="edge7" class="edge">
<title>node16&#45;&gt;node16</title>
<path fill="none" stroke="gray" d="M2009.5,-235.67C2053.92,-244.39 2104.85,-240.1 2104.85,-222.81 2104.85,-206.81 2061.31,-201.94 2019.64,-208.18"/>
<polygon fill="gray" stroke="gray" points="2019.02,-205.98 2012.97,-209.28 2019.76,-210.47 2019.02,-205.98"/>
</g>
<!-- node17 -->
<g id="node18" class="node">
<title>node17</title>
<g id="a_node18"><a xlink:href="node13.html" xlink:title="./compiler_1/compiler_1.java">
<polygon fill="lightyellow" stroke="red" points="2087.21,-128.05 1963.73,-139.6 1840.26,-128.05 1840.37,-109.36 2087.1,-109.36 2087.21,-128.05"/>
<text text-anchor="middle" x="1963.73" y="-120.38" font-family="arial" font-size="10.00">./compiler_1/compiler_1.java</text>
</a>
</g>
</g>
<!-- node16&#45;&gt;node17 -->
<g id="edge8" class="edge">
<title>node16&#45;&gt;node17</title>
<g id="a_edge8"><a xlink:href="edge" xlink:title="edge">
<path fill="none" stroke="red" d="M1968.95,-209C1968.03,-194.03 1966.49,-168.85 1965.32,-149.75"/>
<polygon fill="red" stroke="red" points="1968.8,-149.37 1964.7,-139.6 1961.82,-149.8 1968.8,-149.37"/>
</a>
</g>
</g>
<!-- node17&#45;&gt;node14 -->
<g id="edge11" class="edge">
<title>node17&#45;&gt;node14</title>
<g id="a_edge11"><a xlink:href="config 40d30645de587c598109d450278bf2a1*/compiler_1 @ compiler/compiler" xlink:title="config edge">
<path fill="none" stroke="orange" stroke-dasharray="1,5" d="M1944.3,-109.28C1921.23,-94.32 1882.15,-68.97 1852.56,-49.79"/>
<polygon fill="orange" stroke="orange" points="1853.46,-47.66 1846.77,-46.04 1850.99,-51.48 1853.46,-47.66"/>
</a>
</g>
</g>
<!-- node17&#45;&gt;node17 -->
<g id="edge10" class="edge">
<title>node17&#45;&gt;node17</title>
<path fill="none" stroke="gray" d="M2002.42,-136C2049.5,-146.06 2104.97,-141.69 2104.97,-122.88 2104.97,-105.23 2056.1,-100.3 2011.17,-108.08"/>
<polygon fill="gray" stroke="gray" points="2010.55,-105.88 2004.58,-109.32 2011.39,-110.35 2010.55,-105.88"/>
</g>
<!-- node18&#45;&gt;node14 -->
<g id="edge18" class="edge">
<title>node18&#45;&gt;node14</title>
<g id="a_edge18"><a xlink:href="config 40d30645de587c598109d450278bf2a1*/compiler_1 @ compiler/compiler" xlink:title="config edge">
<path fill="none" stroke="orange" stroke-dasharray="1,5" d="M1747.22,-209.13C1758.32,-177.75 1787.3,-95.86 1802.73,-52.25"/>
<polygon fill="orange" stroke="orange" points="1804.88,-52.99 1804.9,-46.1 1800.59,-51.47 1804.88,-52.99"/>
</a>
</g>
</g>
<!-- node18&#45;&gt;node18 -->
<g id="edge17" class="edge">
<title>node18&#45;&gt;node18</title>
<path fill="none" stroke="gray" d="M1768.94,-235.47C1799.15,-244.46 1834.15,-240.23 1834.15,-222.81 1834.15,-207.25 1806.28,-202.22 1778.81,-207.7"/>
<polygon fill="gray" stroke="gray" points="1778.05,-205.54 1772.23,-209.22 1779.07,-209.97 1778.05,-205.54"/>
</g>
<!-- node19&#45;&gt;node6 -->
<g id="edge5" class="edge">
<title>node19&#45;&gt;node6</title>
<g id="a_edge5"><a xlink:href="edge" xlink:title="edge">
<path fill="none" stroke="red" d="M2003.47,-390.56C2045.39,-375.61 2117.09,-350.05 2163.68,-333.44"/>
<polygon fill="red" stroke="red" points="2164.98,-336.69 2173.22,-330.03 2162.63,-330.1 2164.98,-336.69"/>
</a>
</g>
</g>
<!-- node19&#45;&gt;node13 -->
<g id="edge4" class="edge">
<title>node19&#45;&gt;node13</title>
<g id="a_edge4"><a xlink:href="edge" xlink:title="edge">
<path fill="none" stroke="red" d="M1928.1,-391.36C1871.26,-376.03 1769.35,-348.55 1707.01,-331.74"/>
<polygon fill="red" stroke="red" points="1707.55,-328.26 1696.98,-329.04 1705.73,-335.02 1707.55,-328.26"/>
</a>
</g>
</g>
<!-- node19&#45;&gt;node14 -->
<g id="edge6" class="edge">
<title>node19&#45;&gt;node14</title>
<g id="a_edge6"><a xlink:href="config 40d30645de587c598109d450278bf2a1*/compiler_1 @ compiler/compiler" xlink:title="config edge">
<path fill="none" stroke="orange" stroke-dasharray="1,5" d="M1989.48,-388.98C2022.68,-364.74 2088.51,-310.52 2113.73,-245.77 2137.26,-185.37 2153.57,-151.06 2113.73,-99.92 2087.6,-66.37 1979.3,-45.32 1900.07,-34.11"/>
<polygon fill="orange" stroke="orange" points="1900.21,-31.83 1893.46,-33.18 1899.58,-36.34 1900.21,-31.83"/>
</a>
</g>
</g>
<!-- node19&#45;&gt;node16 -->
<g id="edge3" class="edge">
<title>node19&#45;&gt;node16</title>
<g id="a_edge3"><a xlink:href="edge" xlink:title="edge">
<path fill="none" stroke="red" d="M1969.73,-386.72C1969.73,-355.84 1969.73,-287.41 1969.73,-249.8"/>
<polygon fill="red" stroke="red" points="1973.23,-249.64 1969.73,-239.64 1966.23,-249.64 1973.23,-249.64"/>
</a>
</g>
</g>
<!-- node20 -->
<g id="node21" class="node">
<title>node20</title>
<polygon fill="none" stroke="white" points="1462.73,-684.62 1042.73,-684.62 1042.73,-648.62 1462.73,-648.62 1462.73,-684.62"/>
<text text-anchor="middle" x="1252.73" y="-669.22" font-family="Times,serif" font-size="8.00">Pbsfile: &#39;/home/nadim/nadim/devel/repositories/perl_modules/P5&#45;PerlBuildSystem/Pbsfiles/sugar/proj&#39;</text>
<text text-anchor="middle" x="1252.73" y="-660.22" font-family="Times,serif" font-size="8.00"> PBS on mån feb &#160;8 15:23:58 2021Using warp.</text>
</g>
<!-- node20&#45;&gt;PBS ROOT -->
</g>
</svg>
